<svg width="24" height="25" viewBox="0 0 24 25" fill="none" xmlns="http://www.w3.org/2000/svg">
<path d="M16.7298 5.64189H15.5473V4.45946C15.5473 4.2713 15.4726 4.09085 15.3395 3.9578C15.2065 3.82475 15.026 3.75 14.8379 3.75C14.6497 3.75 14.4692 3.82475 14.3362 3.9578C14.2032 4.09085 14.1284 4.2713 14.1284 4.45946V5.64189H9.87165V4.45946C9.87165 4.2713 9.7969 4.09085 9.66385 3.9578C9.5308 3.82475 9.35035 3.75 9.16219 3.75C8.97403 3.75 8.79357 3.82475 8.66053 3.9578C8.52748 4.09085 8.45273 4.2713 8.45273 4.45946V5.64189H7.2703C6.58038 5.64189 5.91871 5.91596 5.43086 6.40381C4.94302 6.89166 4.66895 7.55332 4.66895 8.24324V18.6486C4.66895 19.3386 4.94302 20.0002 5.43086 20.4881C5.91871 20.9759 6.58038 21.25 7.2703 21.25H16.7298C17.4197 21.25 18.0813 20.9759 18.5692 20.4881C19.057 20.0002 19.3311 19.3386 19.3311 18.6486V8.24324C19.3311 7.55332 19.057 6.89166 18.5692 6.40381C18.0813 5.91596 17.4197 5.64189 16.7298 5.64189ZM7.2703 7.06081H8.45273V8.24324C8.45273 8.4314 8.52748 8.61186 8.66053 8.74491C8.79357 8.87796 8.97403 8.9527 9.16219 8.9527C9.35035 8.9527 9.5308 8.87796 9.66385 8.74491C9.7969 8.61186 9.87165 8.4314 9.87165 8.24324V7.06081H14.1284V8.24324C14.1284 8.4314 14.2032 8.61186 14.3362 8.74491C14.4692 8.87796 14.6497 8.9527 14.8379 8.9527C15.026 8.9527 15.2065 8.87796 15.3395 8.74491C15.4726 8.61186 15.5473 8.4314 15.5473 8.24324V7.06081H16.7298C17.0434 7.06081 17.3441 7.18539 17.5659 7.40714C17.7876 7.62889 17.9122 7.92964 17.9122 8.24324V10.8446H6.08786V8.24324C6.08786 7.92964 6.21244 7.62889 6.43419 7.40714C6.65594 7.18539 6.9567 7.06081 7.2703 7.06081ZM16.7298 19.8311H7.2703C6.9567 19.8311 6.65594 19.7065 6.43419 19.4848C6.21244 19.263 6.08786 18.9622 6.08786 18.6486V12.2635H17.9122V18.6486C17.9122 18.9622 17.7876 19.263 17.5659 19.4848C17.3441 19.7065 17.0434 19.8311 16.7298 19.8311Z" fill="#4B5563"/>
</svg>
